<svg width="512" height="512" viewBox="0 0 135.46666 135.46667" xmlns="http://www.w3.org/2000/svg">
  <defs>
    <linearGradient id="a" x1="7.3094187" x2="7.3094187" y1="10.192285" y2="2.5053215" gradientTransform="scale(.60511 1.6526)" gradientUnits="userSpaceOnUse">
      <stop offset="0%" stop-color="#00de7b"></stop>
      <stop offset="100%" stop-color="#00ba6e"></stop>
    </linearGradient>
  </defs>
  <g fill-rule="nonzero" fill="none">
    <path fill="url(#a)" d="M1.809 4.388h5.228v14.278H1.809z" transform="matrix(6.94825 0 0 6.94825 -3.84401809 -12.08125714)"></path>
    <path fill="#00de7b" d="M123.88558047 58.38784957a17.52347536 17.52347536 0 01-5.62807892 24.388342l-81.83643648 50.0134717a18.23219641 18.23219641 0 01-24.8747192-5.73925085 17.52347536 17.52347536 0 015.62807893-24.388342l81.83643648-50.02041995a18.23219641 18.23219641 0 0124.87471919 5.7461991z"></path>
    <path fill="#00de7b" d="M11.43517395 8.44386031a18.26693764 18.26693764 0 0124.90946042-5.77399208l82.0240391 50.0273682a17.55126834 17.55126834 0 015.66282016 24.41613498A18.26693764 18.26693764 0 0199.1220332 82.8873635L17.0979941 32.8599953a17.55126834 17.55126834 0 01-5.66282015-24.41613498z"></path>
  </g>
</svg>
