
<svg xmlns="http://www.w3.org/2000/svg" viewBox="0 0 65.363069 75.170254" version="1.1" id="svg48" width="65.363068" height="75.170258">
  
  
  <defs id="defs5">
    <clipPath id="clip-path">
      <path fill="none" d="M 387.14,65 A 108.54,108.54 0 0 1 385,43.19 a 100.16,100.16 0 0 1 1.33,-17.07 20.93,20.93 0 0 1 0.71,-2.77 11.1,11.1 0 0 1 6.35,-6.74 28.88,28.88 0 0 1 4.87,-1.61 83.71,83.71 0 0 1 19.15,-2.37 h 0.45 a 78.06,78.06 0 0 1 18.91,2.37 49.58,49.58 0 0 1 5.15,1.68 c 0,0 5.07,2 6.42,6.67 A 24.76,24.76 0 0 1 449,26 a 114.94,114.94 0 0 1 1.36,17.21 110.06,110.06 0 0 1 -2.2,21.93 v 0 a 10.05,10.05 0 0 1 -7.66,7.75 l -0.36,0.07 A 115.36,115.36 0 0 1 417.68,75.16 115.39,115.39 0 0 1 395.26,73 l -0.5,-0.1 A 10,10 0 0 1 389,69.2 8.83,8.83 0 0 1 387.14,65 Z" id="path2"></path>
    </clipPath>
  </defs>
  <title id="title7">Asset 1</title>
  <g id="Layer_2" transform="translate(-384.99694,0.01008788)">
    <g id="Layer_1-2">
      <path fill="#0545b1" d="m 435.21999,1.2700001 a 2.3299999,2.33 0 0 1 -1.36,3.25 L 419.74999,10.93 a 4.6599999,4.66 0 0 1 -4.37,-0.1 l -9.12,-4.32 a 2.34,2.34 0 0 1 -0.61,-3.4399999 v 0 a 2.2999999,2.3 0 0 1 3.35,-0.26 l 7,5.6399999 a 2.4699999,2.47 0 0 0 2.19,0.52 2.9999999,3 0 0 0 0.81,-0.37 l 12.91,-8.26999995 a 2.3499999,2.35 0 0 1 3.31,0.94000005 z" id="path28" style="stroke-width:1"></path>
      <g clip-path="url(#clip-path)" id="g44">
        <path fill="#0545b1" d="m 453.24,27.38 c -1,-7.4 -2.7,-11.63 -12.33,-13.81 A 105.8,105.8 0 0 0 420.77,11 c -1.09,-0.05 -2.19,-0.05 -3.29,0 a 105.71,105.71 0 0 0 -20.13,2.58 c -7.13,1.62 -9.92,4.35 -11.29,8.67 -0.24,0.76 2.06,-0.45 1.89,0.41 -0.17,0.86 0.53,12.21 0.4,13.17 -1,7.29 -4.24,7.61 -4.24,7.87 A 134.72,134.72 0 0 0 385,60 c 1,7.4 2.71,11.62 12.34,13.81 8.68,2 15,1.83 20.13,2.06 1.1,0 2.2,0 3.29,0 5.16,-0.23 11.45,-0.1 20.14,-2.06 9.63,-2.19 11.34,-6.41 12.33,-13.81 a 132.48,132.48 0 0 0 0.9,-16.31 c 0,-0.14 -1.45,-3 -2.88,-6.78 -0.14,-0.37 -1.08,1.57 -1.22,1.19 -1,-2.74 -1.09,-8.12 -1.41,-10.85 -0.04,-0.44 4.68,0.56 4.62,0.13 z" id="path30"></path>
        <path fill="#00bbed" d="m 428.87,33.56 c -0.07,-2.56 -0.1,-5.08 0,-7.61 a 5.56,5.56 0 0 1 2.58,-4.79 6.39,6.39 0 0 1 5.83,-0.29 c 3,1.33 6.82,3.37 6.82,3.37 2.21,1.2 4.07,2.21 6.39,3.72 v 0 a 2.5,2.5 0 0 1 0.35,0.21 5.63,5.63 0 0 1 0.07,9.45 v 0 c -2.2,1.46 -4.11,2.85 -6.37,4.25 a 60,60 0 0 1 -5.93,3.31 7.37,7.37 0 0 1 -6.32,0.32 6.14,6.14 0 0 1 -3,-4.94 c 0,0 -0.29,-2.79 -0.42,-7 z" id="path32"></path>
        <path fill="#ffffff" d="m 432.75,53.93 c -7.31,6.8 -23.16,6.81 -30.27,0 a 1.44,1.44 0 0 0 -2,2.07 c 8.21,7.84 25.8,7.85 34.21,0 a 1.432873,1.432873 0 1 0 -1.95,-2.1 z" id="path34"></path>
        <path fill="#1ac62f" d="m 426.91,42.6 a 0.2,0.2 0 0 1 0,-0.07 V 42.1 l -1,-10.77 v -0.3 a 5,5 0 0 0 -0.13,-0.69 5.55,5.55 0 0 0 -4.43,-4.13 5.64,5.64 0 0 0 -0.93,-0.08 h -5.53 a 5.29,5.29 0 0 0 -0.8,0.06 5.56,5.56 0 0 0 -4.56,4.14 c 0,0.18 -0.08,0.37 -0.11,0.55 l -0.05,0.58 -1,10.7 v 0.25 a 1.15,1.15 0 0 0 0,0.19 1.48,1.48 0 0 0 0,0.21 5.56,5.56 0 0 0 4.14,5.37 5.45,5.45 0 0 0 1.41,0.19 h 7.51 a 5.5,5.5 0 0 0 0.91,-0.08 5.57,5.57 0 0 0 4.64,-5.48 z" id="path36"></path>
        <path fill="#f2338a" d="m 406.11,36.67 c -2.13,7.11 -8.5,10.73 -15.54,9.51 -7.31,-1.26 -12.59,-11.6 -8.95,-18 3.12,-5.46 9.92,-9.5 17,-7.32 7.55,2.35 9.64,8.63 7.49,15.81 z" id="path38"></path>
        <circle fill="#1a1919" cx="439.10001" cy="33.27" r="4.6900001" id="circle40"></circle>
        <circle fill="#1a1919" cx="395.45999" cy="33.27" r="4.6900001" id="circle42"></circle>
      </g>
    </g>
  </g>
</svg>
